
      <svg data-logo="logo" xmlns="http://www.w3.org/2000/svg" viewBox="0 0 230 55.4">
        <g id="logogram" transform="translate(0, 7.199999999999999) rotate(0) "><path d="M0.452637 20.81C0.452637 9.76427 9.40694 0.809967 20.4526 0.809967H46.7026C57.7484 0.809967 66.7026 9.76427 66.7026 20.81V40.81H20.4526C9.40694 40.81 0.452637 31.8557 0.452637 20.81Z" fill="#4845D2"/><path d="M46.7026 8.30997H20.4526C13.5491 8.30997 7.95264 13.9064 7.95264 20.81C7.95264 27.7135 13.5491 33.31 20.4526 33.31H46.7026C53.6062 33.31 59.2026 27.7135 59.2026 20.81C59.2026 13.9064 53.6062 8.30997 46.7026 8.30997Z" fill="#A5B4FC"/><path d="M20.4526 27.06C23.9044 27.06 26.7026 24.2617 26.7026 20.81C26.7026 17.3582 23.9044 14.56 20.4526 14.56C17.0009 14.56 14.2026 17.3582 14.2026 20.81C14.2026 24.2617 17.0009 27.06 20.4526 27.06Z" fill="black"/><path d="M17.9526 19.56C18.643 19.56 19.2026 19.0003 19.2026 18.31C19.2026 17.6196 18.643 17.06 17.9526 17.06C17.2623 17.06 16.7026 17.6196 16.7026 18.31C16.7026 19.0003 17.2623 19.56 17.9526 19.56Z" fill="white"/><path d="M47.9526 27.06C51.4044 27.06 54.2026 24.2617 54.2026 20.81C54.2026 17.3582 51.4044 14.56 47.9526 14.56C44.5009 14.56 41.7026 17.3582 41.7026 20.81C41.7026 24.2617 44.5009 27.06 47.9526 27.06Z" fill="black"/><path d="M45.4526 19.56C46.143 19.56 46.7026 19.0003 46.7026 18.31C46.7026 17.6196 46.143 17.06 45.4526 17.06C44.7623 17.06 44.2026 17.6196 44.2026 18.31C44.2026 19.0003 44.7623 19.56 45.4526 19.56Z" fill="white"/></g>
        <g id="logotype" transform="translate(70, 19.9)"><path fill="#4845d2" d="M9.84 28L4.90 28L4.90 1.40L8.93 1.40L21.89 16.79Q22.34 17.32 22.78 17.87Q23.22 18.42 23.63 18.99L23.63 18.99Q23.52 18.16 23.48 17.00Q23.44 15.84 23.44 14.66L23.44 14.66L23.44 1.40L28.31 1.40L28.31 28L24.85 28L11.40 12.00Q10.94 11.47 10.50 10.92Q10.07 10.37 9.65 9.80L9.65 9.80Q9.76 10.63 9.80 11.79Q9.84 12.95 9.84 14.13L9.84 14.13L9.84 28ZM41.19 28.49L41.19 28.49Q38.15 28.49 35.83 27.09Q33.51 25.68 32.24 23.34Q30.97 21.01 30.97 18.16L30.97 18.16Q30.97 15.31 32.30 12.93Q33.63 10.56 35.93 9.15Q38.23 7.75 41.19 7.75L41.19 7.75Q44.15 7.75 46.41 9.15Q48.68 10.56 49.95 12.93Q51.22 15.31 51.22 18.16L51.22 18.16Q51.22 18.58 51.18 19.03Q51.15 19.49 51.07 19.98L51.07 19.98L36.29 19.98Q36.71 21.73 37.98 22.83Q39.25 23.93 41.19 23.93L41.19 23.93Q42.86 23.93 44.10 23.17Q45.33 22.41 46.02 21.27L46.02 21.27L50.01 24.28Q48.83 26.14 46.47 27.32Q44.12 28.49 41.19 28.49ZM41.11 12.15L41.11 12.15Q39.29 12.15 38.00 13.26Q36.71 14.36 36.29 16.14L36.29 16.14L46.05 16.14Q45.64 14.51 44.32 13.33Q43.01 12.15 41.11 12.15ZM62.96 28.49L62.96 28.49Q59.92 28.49 57.53 27.09Q55.14 25.68 53.79 23.34Q52.44 21.01 52.44 18.16L52.44 18.16Q52.44 15.31 53.79 12.95Q55.14 10.60 57.53 9.19Q59.92 7.78 62.96 7.78L62.96 7.78Q66.04 7.78 68.42 9.19Q70.79 10.60 72.14 12.95Q73.49 15.31 73.49 18.16L73.49 18.16Q73.49 21.01 72.14 23.34Q70.79 25.68 68.42 27.09Q66.04 28.49 62.96 28.49ZM62.96 23.82L62.96 23.82Q64.60 23.82 65.81 23.04Q67.03 22.26 67.70 20.97Q68.36 19.68 68.36 18.16L68.36 18.16Q68.36 16.60 67.70 15.31Q67.03 14.02 65.81 13.24Q64.60 12.46 62.96 12.46L62.96 12.46Q61.33 12.46 60.11 13.24Q58.90 14.02 58.23 15.31Q57.57 16.60 57.57 18.16L57.57 18.16Q57.57 19.68 58.23 20.97Q58.90 22.26 60.11 23.04Q61.33 23.82 62.96 23.82ZM85.00 28.49L85.00 28.49Q82.88 28.49 81.03 27.70Q79.19 26.90 77.78 25.47Q76.38 24.05 75.60 22.17Q74.82 20.29 74.82 18.12L74.82 18.12Q74.82 15.23 76.17 12.89Q77.52 10.56 79.89 9.15Q82.27 7.75 85.27 7.75L85.27 7.75Q87.97 7.71 90.10 8.70Q92.22 9.68 93.48 11.43L93.48 11.43L89.53 14.66Q88.84 13.64 87.76 13.03Q86.68 12.42 85.35 12.42L85.35 12.42Q83.71 12.42 82.50 13.20Q81.28 13.98 80.62 15.27Q79.95 16.56 79.95 18.12L79.95 18.12Q79.95 19.64 80.65 20.95Q81.36 22.26 82.59 23.04Q83.83 23.82 85.46 23.82L85.46 23.82Q86.94 23.82 87.97 23.16Q88.99 22.49 89.75 21.46L89.75 21.46L93.48 24.69Q92.07 26.48 90.00 27.49Q87.93 28.49 85.00 28.49ZM102.60 28.46L102.60 28.46Q100.47 28.46 98.76 27.47Q97.05 26.48 96.06 24.64Q95.07 22.79 95.07 20.32L95.07 20.32L95.07 8.24L100.20 8.24L100.20 19.07Q100.20 21.62 101.23 22.79Q102.26 23.97 104.16 23.97L104.16 23.97Q105.79 23.97 107.03 22.79Q108.26 21.62 108.26 19.07L108.26 19.07L108.26 8.24L113.39 8.24L113.39 28L108.41 28L108.41 25.04Q107.69 26.75 106.30 27.60Q104.92 28.46 102.60 28.46ZM127.79 28.49L127.79 28.49Q125.13 28.49 123.67 27.47Q122.21 26.44 121.41 24.77L121.41 24.77L121.41 28L116.43 28L116.43 0.26L121.56 0.26L121.56 11.28Q122.36 9.72 123.80 8.77Q125.25 7.82 127.79 7.82L127.79 7.82Q129.84 7.82 131.61 8.64Q133.38 9.46 134.71 10.88Q136.04 12.31 136.80 14.19Q137.56 16.07 137.56 18.20L137.56 18.20Q137.56 21.05 136.25 23.38Q134.94 25.72 132.73 27.11Q130.53 28.49 127.79 28.49ZM126.96 23.86L126.96 23.86Q128.59 23.86 129.83 23.06Q131.06 22.26 131.74 20.95Q132.43 19.64 132.43 18.16L132.43 18.16Q132.43 16.60 131.74 15.31Q131.06 14.02 129.83 13.24Q128.59 12.46 126.96 12.46L126.96 12.46Q125.28 12.46 124.03 13.26Q122.78 14.05 122.09 15.35Q121.41 16.64 121.41 18.20L121.41 18.20Q121.41 19.72 122.09 21.01Q122.78 22.30 124.03 23.08Q125.28 23.86 126.96 23.86ZM149.11 28.49L149.11 28.49Q146.07 28.49 143.75 27.09Q141.43 25.68 140.16 23.34Q138.89 21.01 138.89 18.16L138.89 18.16Q138.89 15.31 140.22 12.93Q141.55 10.56 143.85 9.15Q146.15 7.75 149.11 7.75L149.11 7.75Q152.07 7.75 154.34 9.15Q156.60 10.56 157.87 12.93Q159.14 15.31 159.14 18.16L159.14 18.16Q159.14 18.58 159.10 19.03Q159.07 19.49 158.99 19.98L158.99 19.98L144.21 19.98Q144.63 21.73 145.90 22.83Q147.17 23.93 149.11 23.93L149.11 23.93Q150.78 23.93 152.02 23.17Q153.25 22.41 153.94 21.27L153.94 21.27L157.93 24.28Q156.75 26.14 154.39 27.32Q152.04 28.49 149.11 28.49ZM149.03 12.15L149.03 12.15Q147.21 12.15 145.92 13.26Q144.63 14.36 144.21 16.14L144.21 16.14L153.97 16.14Q153.56 14.51 152.25 13.33Q150.93 12.15 149.03 12.15Z"/></g>
        
      </svg>
    